<svg width="120" height="115" viewBox="0 0 120 115" fill="none" xmlns="http://www.w3.org/2000/svg">
<g clip-path="url(#clip0_619_3351)">
<path d="M69.6562 43.7917L76.5412 41.2282L69.6562 38.5914V35.0024L81.4486 39.7633V42.6931L69.6562 47.4539V43.7917Z" fill="#72767D"/>
<path d="M4.54211 66.4975C2.05181 66.4975 0.000976562 65.2524 0.000976562 62.4691V62.3226C0.000976562 58.9534 2.93074 57.7815 6.5197 57.7815H8.20432V57.1223C8.20432 55.7307 7.61836 54.925 6.15348 54.925C4.83509 54.925 4.17589 55.6574 4.10265 56.6828H0.440441C0.733418 53.6066 3.15047 52.1417 6.37321 52.1417C9.6692 52.1417 12.0863 53.5333 12.0863 56.9758V66.2046H8.35081V64.5932C7.61836 65.6186 6.37321 66.4975 4.54211 66.4975ZM8.20432 61.6634V60.345H6.66619C4.76184 60.345 3.80967 60.8577 3.80967 62.1029V62.2494C3.80967 63.2016 4.39562 63.8608 5.71402 63.8608C7.03241 63.7875 8.20432 63.0551 8.20432 61.6634ZM20.8023 66.4975C16.9936 66.4975 14.2103 64.1537 14.2103 59.4661V59.2464C14.2103 54.5588 17.1401 52.0685 20.8023 52.0685C23.9518 52.0685 26.5153 53.6798 26.8083 57.2688H23.1461C22.9264 55.9504 22.1939 55.0715 20.8756 55.0715C19.2642 55.0715 18.0923 56.3899 18.0923 59.0999V59.5394C18.0923 62.3226 19.1177 63.5678 20.8756 63.5678C22.1939 63.5678 23.1461 62.6156 23.3659 61.0775H26.8816C26.6618 64.3002 24.5378 66.4975 20.8023 66.4975ZM35.1582 66.4975C31.3495 66.4975 28.5662 64.1537 28.5662 59.4661V59.2464C28.5662 54.5588 31.4959 52.0685 35.1582 52.0685C38.3077 52.0685 40.8712 53.6798 41.1642 57.2688H37.502C37.2822 55.9504 36.5498 55.0715 35.2314 55.0715C33.62 55.0715 32.4481 56.3899 32.4481 59.0999V59.5394C32.4481 62.3226 33.4735 63.5678 35.2314 63.5678C36.5498 63.5678 37.502 62.6156 37.7217 61.0775H41.2374C41.0177 64.3002 38.8936 66.4975 35.1582 66.4975ZM49.5872 66.4975C45.6321 66.4975 42.922 64.1537 42.922 59.5394V59.2464C42.922 54.632 45.7785 52.0685 49.514 52.0685C52.9565 52.0685 55.813 53.9728 55.813 58.5872V60.2718H46.804C46.9505 62.7621 48.0491 63.7143 49.6605 63.7143C51.1254 63.7143 51.9311 62.9086 52.224 61.9564H55.813C55.3735 64.52 53.1762 66.4975 49.5872 66.4975ZM46.8772 57.7083H52.0043C51.9311 55.6574 50.9789 54.7785 49.4408 54.7785C48.2689 54.8517 47.1702 55.5109 46.8772 57.7083ZM58.1568 52.4347H62.0387V54.4855C62.6979 53.1671 64.0896 52.1417 66.2137 52.1417C68.704 52.1417 70.3886 53.6798 70.3886 56.9758V66.2046H66.5066V57.5618C66.5066 55.9504 65.8474 55.218 64.4558 55.218C63.1374 55.218 62.0387 56.0236 62.0387 57.7815V66.2046H58.1568V52.4347ZM77.4933 48.2598V52.4347H80.13V55.2912H77.4933V61.8099C77.4933 62.8353 77.9327 63.348 78.8849 63.348C79.4708 63.348 79.8371 63.2748 80.2033 63.1283V66.1313C79.7638 66.2778 78.9581 66.4243 78.006 66.4243C75.003 66.4243 73.6113 65.0327 73.6113 62.2494V55.2912H71.9999V52.4347H73.6113V49.8711L77.4933 48.2598ZM94.6324 66.2046H90.8237V64.1537C90.1645 65.4721 88.8461 66.4975 86.7953 66.4975C84.305 66.4975 82.4739 64.9594 82.4739 61.7367V52.4347H86.3558V61.224C86.3558 62.8353 87.015 63.5678 88.3334 63.5678C89.6518 63.5678 90.7504 62.6889 90.7504 61.0042V52.4347H94.6324V66.2046ZM97.4889 52.4347H101.371V54.9982C102.177 53.1671 103.495 52.2882 105.546 52.2882V56.0969C102.909 56.0969 101.371 56.9026 101.371 59.1731V66.2778H97.4889V52.4347ZM113.383 66.4975C109.428 66.4975 106.718 64.1537 106.718 59.5394V59.2464C106.718 54.632 109.574 52.0685 113.31 52.0685C116.752 52.0685 119.609 53.9728 119.609 58.5872V60.2718H110.673C110.819 62.7621 111.918 63.7143 113.529 63.7143C114.994 63.7143 115.8 62.9086 116.093 61.9564H119.682C119.096 64.52 116.972 66.4975 113.383 66.4975ZM110.6 57.7083H115.8C115.727 55.6574 114.775 54.7785 113.236 54.7785C112.064 54.8517 110.966 55.5109 110.6 57.7083Z" fill="#72767D"/>
</g>
<defs>
<clipPath id="clip0_619_3351">
<rect width="119.681" height="31.5" fill="white" transform="translate(0 35)"/>
</clipPath>
</defs>
</svg>
