<svg width="144" height="114" viewBox="0 0 144 114" fill="none" xmlns="http://www.w3.org/2000/svg">
<path fill-rule="evenodd" clip-rule="evenodd" d="M118.116 55.0289C114.258 54.191 112.954 53.8189 112.954 52.5946C112.954 51.5145 114.351 50.9691 116.557 50.9691C118.638 50.9691 121.154 51.8576 122.63 52.7426L124.135 48.8489C121.898 47.917 119.205 47.0249 115.647 47.0249C110.98 47.0249 108.068 49.7555 108.068 53.0929C108.068 56.434 110.468 57.9041 115.225 58.9118C118.913 59.692 119.912 60.1615 119.912 61.3101C119.912 62.4587 118.433 62.8814 116.433 62.8814C113.846 62.8814 111.355 62.0181 109.01 61.0103L107.591 64.8063C110.396 66.1066 113.309 67.1505 116.78 67.1505C122.565 67.1505 124.925 64.3837 124.925 61.1582C124.925 58.2904 122.941 56.08 118.116 55.0289ZM101.388 58.3303V47.5703H106.151V58.3628C106.151 65.2471 102.106 67.2518 97.1082 67.2518C92.1131 67.2518 88.0713 65.2471 88.0713 58.3628V47.5703H92.8386V58.3339C92.8386 61.6244 94.7441 63.0005 97.1082 63.0005C99.468 63.0005 101.388 61.6208 101.388 58.3303ZM84.1124 56.9287C85.3538 56.0546 85.823 54.6062 85.823 53.0133C85.823 50.0154 83.3004 47.6134 80.2076 47.6134H69.0056V66.7532H80.6479V66.7605C83.9175 66.7605 86.6386 64.2358 86.6386 61.144C86.6386 59.1285 85.426 57.6366 84.1124 56.9287ZM80.2039 51.6552H73.607V54.9023H80.1642C81.0701 54.9131 81.8713 54.1871 81.8713 53.2769C81.8713 52.3631 81.1062 51.666 80.2039 51.6552ZM73.607 62.7114H80.3195C81.4237 62.7114 82.3187 61.8517 82.3187 60.8187C82.3187 59.7857 81.4274 58.9585 80.3231 58.9405H73.607V62.7114ZM18.7627 66.7496L28.4237 47.6134L32.2202 47.6135L42.2565 66.7532H36.5039L30.3327 54.2487L27.8823 59.4823H30.4844L32.5342 63.6758H25.9444L24.5008 66.7532L18.7627 66.7496ZM67.2409 53.9777C67.2408 50.4922 64.8518 47.6641 59.9401 47.6641H50.0193V66.8037L54.617 66.8V51.7057H60.2577C61.925 51.7057 62.6179 52.7388 62.6179 53.9668C62.6179 55.1985 61.8889 56.1845 60.2215 56.1845H56.2771L62.2462 66.8H66.9665C66.9665 66.8 62.8814 59.8615 62.903 59.8579C65.8514 58.9405 67.2409 56.7046 67.2409 53.9777ZM47.9982 66.7603H43.2416V47.6243H47.9982V66.7603Z" fill="#72767D"/>
</svg>
