<svg width="116" height="115" viewBox="0 0 116 115" fill="none" xmlns="http://www.w3.org/2000/svg">
<path d="M71.4032 71.8697C64.9401 76.6264 55.5508 79.1873 47.5029 79.1873C36.1919 79.1873 26.0091 75.0111 18.296 68.0283C17.6873 67.4805 18.2351 66.7479 18.9677 67.174C27.2896 72.0219 37.5636 74.9176 48.2051 74.9176C55.3704 74.9176 63.2357 73.4241 70.4901 70.3436C71.5554 69.8893 72.501 71.0784 71.4032 71.8697Z" fill="#72767D"/>
<path d="M74.1127 68.7913C73.2888 67.7239 68.6561 68.3044 66.5517 68.5478C65.9126 68.6391 65.8191 68.0609 66.3995 67.663C70.0887 65.0717 76.1562 65.8043 76.8562 66.6869C77.5584 67.5717 76.6736 73.6371 73.1975 76.535C72.6801 76.9915 72.1605 76.7481 72.404 76.1393C73.1692 74.2176 74.9366 69.8587 74.1127 68.7913Z" fill="#72767D"/>
<path d="M66.7109 49.3112V46.7807C66.7109 46.3851 67.0153 46.1416 67.3501 46.1416H78.6611C79.0263 46.1416 79.3002 46.4155 79.3002 46.7807V48.946C79.3002 49.3113 78.9959 49.77 78.4459 50.5308L72.5914 58.9137C74.7567 58.8528 77.0719 59.1876 79.0546 60.2854C79.5111 60.5289 79.6328 60.8942 79.6633 61.2616V63.9442C79.6633 64.3095 79.2676 64.7377 78.8394 64.5225C75.3632 62.6942 70.7306 62.5094 66.8892 64.5529C66.4935 64.766 66.0957 64.3399 66.0957 63.9747V61.4137C66.0957 60.9876 66.0957 60.2854 66.5218 59.6767L73.3197 49.92H67.4044C66.9849 49.9504 66.7109 49.7069 66.7109 49.3112Z" fill="#72767D"/>
<path d="M25.3962 65.0985H21.9505C21.6157 65.068 21.3722 64.8245 21.3418 64.5202V46.8371C21.3418 46.4719 21.6461 46.198 22.0135 46.198H25.2136C25.5484 46.198 25.8223 46.4719 25.8223 46.7762V49.0937H25.8832C26.7071 46.8675 28.2919 45.8306 30.4267 45.8306C32.5919 45.8306 33.9333 46.8675 34.9072 49.0937C35.7311 46.8675 37.6203 45.8306 39.6638 45.8306C41.0964 45.8306 42.6812 46.4393 43.6573 47.7502C44.7551 49.2437 44.5117 51.409 44.5117 53.2981V64.4571C44.5117 64.8224 44.2073 65.0963 43.8399 65.0963H40.3942C40.0594 65.0658 39.7855 64.7919 39.7855 64.4571V55.0982C39.7855 54.3656 39.8464 52.5068 39.6942 51.7742C39.4507 50.585 38.6572 50.2502 37.6811 50.2502C36.8572 50.2502 35.9746 50.7981 35.6072 51.7133C35.242 52.5981 35.3028 54.0916 35.3028 55.0982V64.4571C35.3028 64.8224 34.9985 65.0963 34.6311 65.0963H31.1854C30.8506 65.0658 30.5767 64.7919 30.5767 64.4571V55.0982C30.5767 53.1155 30.9115 50.2198 28.4419 50.2198C25.9723 50.2198 26.0636 53.0547 26.0636 55.0982V64.4571C26.0658 64.7941 25.7614 65.0985 25.3962 65.0985Z" fill="#72767D"/>
<path d="M89.0571 45.8306C94.1789 45.8306 96.9224 50.2198 96.9224 55.8004C96.9224 61.1962 93.8745 65.4637 89.0571 65.4637C84.0266 65.4637 81.3135 61.0744 81.3135 55.6156C81.3135 50.0981 84.0874 45.8306 89.0571 45.8306ZM89.0875 49.4285C86.557 49.4285 86.4048 52.8742 86.4048 55.0373C86.4048 57.2026 86.3744 61.8049 89.0875 61.8049C91.7701 61.8049 91.8919 58.0852 91.8919 55.8286C91.8919 54.3351 91.831 52.5655 91.3745 51.1329C90.9462 49.9155 90.1853 49.4285 89.0875 49.4285Z" fill="#72767D"/>
<path d="M103.57 65.0985H100.155C99.8198 65.068 99.5459 64.7941 99.5459 64.4593V46.7762C99.5763 46.4414 99.8502 46.198 100.218 46.198H103.418C103.722 46.198 103.966 46.411 104.026 46.6849V49.398H104.087C105.063 46.9893 106.405 45.8306 108.783 45.8306C110.337 45.8306 111.831 46.3784 112.807 47.9045C113.722 49.3067 113.722 51.6851 113.722 53.3916V64.5202C113.692 64.8245 113.387 65.068 113.05 65.068H109.544C109.24 65.0376 108.966 64.8245 108.935 64.5202V54.9156C108.935 52.996 109.148 50.1589 106.77 50.1589C105.946 50.1589 105.155 50.7068 104.787 51.5611C104.3 52.6286 104.239 53.7264 104.239 54.9156V64.4267C104.242 64.7941 103.935 65.0985 103.57 65.0985Z" fill="#72767D"/>
<path d="M63.8102 61.8407C63.171 60.9559 62.4993 60.2559 62.4993 58.6406V53.2753C62.4993 50.9882 62.6515 48.9164 60.9753 47.3599C59.6645 46.0794 57.4688 45.6533 55.7927 45.6533C52.5296 45.6533 48.8426 46.8729 48.0795 50.9274C47.9882 51.3535 48.323 51.5991 48.5969 51.66L51.9209 52.0252C52.2252 52.0252 52.4687 51.7209 52.5296 51.3861C52.8035 49.9839 53.9926 49.3121 55.3035 49.3121C56.0057 49.3121 56.8275 49.586 57.2231 50.1969C57.7101 50.8991 57.6492 51.873 57.6492 52.697V53.1535C55.6666 53.3666 53.0448 53.5187 51.1861 54.3427C49.0208 55.2884 47.5273 57.1775 47.5273 59.9819C47.5273 63.5494 49.7839 65.3473 52.6796 65.3473C55.1187 65.3473 56.4601 64.769 58.3492 62.8472C58.9579 63.7625 59.1731 64.1886 60.3319 65.1343C60.5753 65.256 60.9101 65.256 61.1558 65.043C61.858 64.4342 63.108 63.3364 63.808 62.7559C64.0863 62.5407 64.0254 62.1451 63.8102 61.8407ZM57.0427 60.2841C56.4949 61.2602 55.6101 61.8385 54.6644 61.8385C53.3535 61.8385 52.56 60.832 52.56 59.3385C52.56 56.4123 55.1818 55.8623 57.6818 55.8623V56.5949C57.684 57.9993 57.7144 59.095 57.0427 60.2841Z" fill="#72767D"/>
<path d="M18.6616 61.8407C18.0224 60.9559 17.3507 60.2559 17.3507 58.6406V53.2753C17.3507 50.9882 17.5029 48.9164 15.8268 47.3599C14.5159 46.0794 12.3202 45.6533 10.6441 45.6533C7.38099 45.6533 3.72442 46.8729 2.93093 50.9274C2.83962 51.3535 3.17441 51.5991 3.44832 51.66L6.80272 52.0252C7.10707 52.0252 7.35055 51.7209 7.41142 51.3861C7.68534 49.9839 8.87449 49.3121 10.1854 49.3121C10.8876 49.3121 11.7093 49.586 12.105 50.1969C12.5919 50.8991 12.5311 51.873 12.5311 52.697V53.1535C10.5484 53.3666 7.92665 53.5187 6.06793 54.3427C3.90268 55.2884 2.40918 57.1775 2.40918 59.9819C2.40918 63.5494 4.66573 65.3473 7.56143 65.3473C10.0006 65.3473 11.3419 64.769 13.2311 62.8472C13.8702 63.7625 14.055 64.1886 15.2137 65.1343C15.4572 65.256 15.792 65.256 16.0376 65.043C16.7398 64.4342 17.9898 63.3364 18.6898 62.7559C18.9355 62.5407 18.8746 62.1451 18.6616 61.8407ZM11.8919 60.2841C11.3441 61.2602 10.4897 61.8385 9.51363 61.8385C8.20274 61.8385 7.40925 60.832 7.40925 59.3385C7.40925 56.4123 10.031 55.8623 12.5311 55.8623V56.5949C12.5332 57.9993 12.5637 59.095 11.8919 60.2841Z" fill="#72767D"/>
</svg>
