<svg width="95" height="114" viewBox="0 0 95 114" fill="none" xmlns="http://www.w3.org/2000/svg">
<g clip-path="url(#clip0_628_3288)">
<path d="M33.023 76.2544H29.5537V62.5059H33.023V76.2544Z" fill="#72767D"/>
<mask id="mask0_628_3288" style="mask-type:luminance" maskUnits="userSpaceOnUse" x="5" y="33" width="86" height="49">
<path d="M5.46484 81.395H90.2603V33.0857H5.46484V81.395Z" fill="white"/>
</mask>
<g mask="url(#mask0_628_3288)">
<path d="M60.999 66.4465C60.8561 66.374 59.7396 65.7125 58.0803 65.7125C55.8374 65.7125 54.2813 67.2729 54.2813 69.3795C54.2813 71.4224 55.7704 73.05 58.0803 73.05C59.7111 73.05 60.8462 72.4016 60.999 72.3203V76.0104C60.5638 76.1313 59.3781 76.4994 57.8374 76.4994C53.9352 76.4994 50.5099 73.8093 50.5099 69.3785C50.5099 65.274 53.6088 62.263 57.8374 62.263C59.4638 62.263 60.6704 62.6586 60.999 62.7564V66.4465ZM24.7865 66.4465C24.6469 66.374 23.5315 65.7125 21.8722 65.7125C19.6249 65.7125 18.0699 67.2729 18.0699 69.3795C18.0699 71.4224 19.5601 73.05 21.8722 73.05C23.503 73.05 24.637 72.4016 24.7865 72.3203V76.0104C24.3557 76.1313 23.1711 76.4994 21.6216 76.4994C17.7227 76.4994 14.3018 73.8093 14.3018 69.3785C14.3018 65.274 17.4007 62.263 21.6227 62.263C23.2557 62.263 24.4601 62.6586 24.7865 62.7564V66.4465ZM71.9123 65.7641C69.854 65.7641 68.3254 67.3839 68.3254 69.3795C68.3254 71.3796 69.854 72.9983 71.9123 72.9983C73.9684 72.9983 75.5013 71.3796 75.5013 69.3795C75.5013 67.3839 73.9684 65.7641 71.9123 65.7641ZM79.1772 69.3795C79.1772 73.3126 76.1409 76.4994 71.9134 76.4994C67.6837 76.4994 64.6518 73.3126 64.6518 69.3785C64.6518 65.4532 67.6848 62.263 71.9123 62.263C76.1409 62.263 79.1772 65.4531 79.1772 69.3795ZM46.1812 65.6323C46.1296 65.6158 44.6691 65.2125 43.4691 65.2125C42.079 65.2125 41.3229 65.6784 41.3229 66.3389C41.3229 67.1763 42.3427 67.4685 42.9131 67.6487L43.8702 67.9532C46.123 68.6697 47.1483 70.2114 47.1483 71.8862C47.1483 75.3401 44.1109 76.5005 41.4559 76.5005C39.6108 76.5005 37.8822 76.1598 37.7119 76.1247V72.9598C38.0174 73.0367 39.4724 73.4719 40.9878 73.4719C42.7142 73.4719 43.5076 72.9664 43.5076 72.1884C43.5076 71.4917 42.8208 71.0895 41.9603 70.8191C41.7515 70.7488 41.435 70.6499 41.2196 70.5795C39.2878 69.9685 37.6768 68.8323 37.6768 66.5575C37.6768 63.9861 39.602 62.2597 42.7999 62.2597C44.4889 62.2597 46.0779 62.6696 46.1812 62.6971V65.6311V65.6323Z" fill="#72767D"/>
<path d="M10.6228 47.7325C10.6228 46.7852 9.84919 46.017 8.90083 46.017C7.95247 46.017 7.17773 46.7851 7.17773 47.7313V51.3413C7.18908 51.7906 7.37555 52.2177 7.69735 52.5315C8.01916 52.8453 8.45083 53.0208 8.90029 53.0208C9.34975 53.0208 9.78141 52.8453 10.1032 52.5315C10.425 52.2177 10.6115 51.7906 10.6228 51.3413V47.7325ZM20.0834 42.9961C20.0834 42.5393 19.9019 42.1011 19.5789 41.7781C19.2558 41.4551 18.8177 41.2736 18.3608 41.2736C17.904 41.2736 17.4658 41.4551 17.1428 41.7781C16.8198 42.1011 16.6383 42.5393 16.6383 42.9961V51.3413C16.6383 51.7981 16.8198 52.2363 17.1428 52.5593C17.4658 52.8824 17.904 53.0638 18.3608 53.0638C18.8177 53.0638 19.2558 52.8824 19.5789 52.5593C19.9019 52.2363 20.0834 51.7981 20.0834 51.3413V42.995V42.9961ZM29.545 36.5147C29.545 35.5675 28.7714 34.7982 27.823 34.7982C26.8736 34.7982 26.0999 35.5675 26.0999 36.5147V54.771C26.1113 55.2203 26.2977 55.6474 26.6195 55.9612C26.9413 56.2749 27.373 56.4506 27.8225 56.4506C28.2719 56.4506 28.7036 56.2749 29.0254 55.9612C29.3472 55.6474 29.5337 55.2203 29.545 54.771V36.5147ZM39.0056 42.9961C39.0056 42.5393 38.8241 42.1011 38.501 41.7781C38.178 41.4551 37.7399 41.2736 37.283 41.2736C36.8262 41.2736 36.388 41.4551 36.065 41.7781C35.742 42.1011 35.5605 42.5393 35.5605 42.9961V51.3413C35.5605 51.7981 35.742 52.2363 36.065 52.5593C36.388 52.8824 36.8262 53.0638 37.283 53.0638C37.7399 53.0638 38.178 52.8824 38.501 52.5593C38.8241 52.2363 39.0056 51.7981 39.0056 51.3413V42.995V42.9961ZM48.4562 47.7325C48.4565 47.278 48.2763 46.842 47.9553 46.5203C47.6342 46.1986 47.1986 46.0176 46.7441 46.017C46.2887 46.0167 45.8517 46.197 45.5289 46.5184C45.2061 46.8397 45.0239 47.2759 45.0221 47.7313V51.3413C45.0221 51.7967 45.203 52.2334 45.525 52.5554C45.847 52.8774 46.2838 53.0583 46.7392 53.0583C47.1946 53.0583 47.6313 52.8774 47.9533 52.5554C48.2753 52.2334 48.4562 51.7967 48.4562 51.3413V47.7325ZM57.9212 42.9961C57.9098 42.5483 57.724 42.1225 57.4032 41.8098C57.0824 41.497 56.6521 41.3219 56.2041 41.3219C55.7561 41.3219 55.3258 41.497 55.005 41.8098C54.6843 42.1225 54.4984 42.5483 54.4871 42.9961V51.3413C54.4871 51.7967 54.668 52.2334 54.99 52.5554C55.312 52.8774 55.7487 53.0583 56.2041 53.0583C56.6595 53.0583 57.0962 52.8774 57.4183 52.5554C57.7403 52.2334 57.9212 51.7967 57.9212 51.3413V42.995V42.9961ZM67.3883 36.5147C67.3883 36.0593 67.2074 35.6226 66.8854 35.3006C66.5634 34.9786 66.1266 34.7977 65.6713 34.7977C65.2159 34.7977 64.7791 34.9786 64.4571 35.3006C64.1351 35.6226 63.9542 36.0593 63.9542 36.5147V54.771C63.944 55.0028 63.9809 55.2342 64.0626 55.4514C64.1444 55.6686 64.2692 55.867 64.4296 56.0346C64.5901 56.2022 64.7828 56.3356 64.9962 56.4268C65.2096 56.5179 65.4392 56.5649 65.6713 56.5649C65.9033 56.5649 66.1329 56.5179 66.3463 56.4268C66.5597 56.3356 66.7524 56.2022 66.9129 56.0346C67.0733 55.867 67.1982 55.6686 67.2799 55.4514C67.3616 55.2342 67.3985 55.0028 67.3883 54.771V36.5147ZM76.8533 42.9961C76.8533 42.0478 76.0851 41.2774 75.1148 41.2774C74.6594 41.2777 74.2228 41.4588 73.9009 41.7809C73.5791 42.1029 73.3983 42.5396 73.3983 42.995V51.3413C73.3983 52.294 74.1675 53.0622 75.1148 53.0622C76.0851 53.0622 76.8533 52.294 76.8533 51.3413V42.995V42.9961ZM86.3006 47.7325C86.3006 47.2766 86.1195 46.8394 85.7972 46.5171C85.4749 46.1948 85.0377 46.0137 84.5819 46.0137C84.1261 46.0137 83.6889 46.1948 83.3666 46.5171C83.0443 46.8394 82.8632 47.2766 82.8632 47.7325V51.3413C82.8632 52.294 83.6335 53.0632 84.5819 53.0632C85.5292 53.0632 86.2995 52.294 86.2995 51.3413V47.7325H86.3006Z" fill="#72767D"/>
<path d="M84.3163 74.4445V74.6599H83.7031V76.2544H83.4503V74.661H82.835V74.4445H84.3163ZM84.4449 74.4445H84.8394L85.3811 75.9292H85.3899L85.9141 74.4456H86.3009V76.2544H86.0427V74.7709H86.0339L85.4844 76.2544H85.246L84.7097 74.7709H84.6976V76.2544H84.4449V74.4445Z" fill="#72767D"/>
</g>
</g>
<defs>
<clipPath id="clip0_628_3288">
<rect width="84.8127" height="48.3093" fill="white" transform="translate(5.45508 33.084)"/>
</clipPath>
</defs>
</svg>
