<svg width="99" height="115" viewBox="0 0 99 115" fill="none" xmlns="http://www.w3.org/2000/svg">
<g clip-path="url(#clip0_619_3342)">
<path fill-rule="evenodd" clip-rule="evenodd" d="M43.281 51.0361C43.9081 51.0177 44.8143 52.528 44.8419 53.4741C44.8703 54.4171 45.0972 59.3544 45.16 60.7781C45.2214 62.1964 45.1754 63.5611 45.0834 64.1898C44.9914 64.8185 44.7614 65.1328 43.6804 65.1635C42.5917 65.1941 42.0934 64.5501 42.0014 63.5933C41.9048 62.6427 41.8266 59.9363 41.8734 58.5832C41.9209 57.2262 41.9838 54.6348 42.1601 53.0133C42.3364 51.3911 42.7734 51.043 43.2733 51.03L43.281 51.0361ZM54.7066 50.7831C57.2902 50.7064 60.5179 51.0399 60.5485 51.8641C60.5623 52.3471 60.3109 53.3545 58.9355 53.4932C57.3102 53.6581 49.1245 54.0069 49.1559 55.0174C49.1712 55.551 51.6322 55.6706 53.8878 55.8071C56.2054 55.9473 59.9291 56.034 60.0425 59.7861C60.1284 62.75 59.0091 63.3741 58.5046 63.6117C57.8652 63.9107 55.7117 64.728 54.0633 64.7771C49.0923 64.925 47.0407 62.0661 46.9985 60.614C46.9602 59.326 48.285 58.1822 50.5175 58.1147C52.7462 58.0496 56.2016 58.8546 56.2292 59.7707C56.2522 60.5144 54.7288 60.8977 54.0541 60.9169C51.0105 61.0073 51.1615 59.77 49.4058 59.8229C48.4046 59.8535 47.0062 61.9756 52.0125 61.8277C56.4745 61.695 57.8238 60.2254 57.8008 59.4342C57.7702 58.3884 54.5686 57.8801 52.7148 57.7828C50.864 57.6869 48.0864 57.7 47.1373 57.1004C46.1866 56.5009 46.3215 55.1439 46.6527 54.0215C47.3397 51.6755 52.1382 50.8582 54.7181 50.7823L54.7066 50.7831ZM63.5155 51.7529C65.2635 51.7016 68.9129 59.6036 69.5339 59.586C70.1472 59.5676 69.6926 57.7383 69.3016 55.7204C68.4222 51.1542 67.0506 48.7997 68.3402 48.7622C69.2908 48.733 72.4165 51.7568 72.5928 57.611C72.6718 60.3296 72.2908 63.887 69.8283 63.9606C67.4938 64.0296 64.8327 56.6558 64.2278 56.6742C63.9019 56.6834 63.8766 61.2412 63.7908 62.6158C63.7003 63.9912 63.2234 64.7264 62.4583 64.7487C61.2953 64.7847 60.7847 63.6707 60.7218 61.475C60.6543 59.2801 61.3735 51.8166 63.524 51.7537L63.5155 51.7529ZM15.6519 54.7529C11.9949 55.0243 7.3144 55.7036 7.35273 56.987C7.39107 58.3286 10.8411 60.9023 15.372 62.5813C15.5829 59.8443 15.6365 56.931 15.6519 54.7537V54.7529ZM90.6838 61.2826C92.8872 56.9678 95.1635 54.5106 95.9616 54.4869C97.3492 54.4447 96.1762 60.7176 90.6838 61.2826ZM85.7971 62.3897C83.9878 65.9547 82.7734 69.7343 82.8585 72.5786C82.9582 75.7833 84.9208 76.977 85.5188 76.9594C86.1168 76.9417 86.1475 75.9934 86.2548 75.2881C86.8682 71.286 87.9108 67.7441 89.1068 64.7656C89.5821 64.8852 90.0498 64.9419 90.4868 64.9265C94.1515 64.8192 98.3942 60.4416 98.2531 55.7818C98.1826 53.3208 97.2411 51.5773 95.6664 51.6249C93.3587 51.6924 90.0421 55.1784 87.3811 59.5545C87.1411 57.7789 88.5433 55.0465 89.7347 53.1345C90.5734 51.7928 90.4285 50.1958 90.0782 50.2058C89.5929 50.2211 84.8672 54.2208 85.0274 59.7063C85.0581 60.7735 85.3341 61.669 85.7987 62.3973L85.7971 62.3897ZM81.2378 56.034C82.0612 56.011 82.7895 55.873 82.7174 56.9463C82.6446 58.0196 82.6001 58.449 81.7392 58.4751L77.3308 58.6054C77.1852 59.0961 76.8095 60.361 76.6408 60.8946C76.43 61.5632 77.1008 61.416 77.9656 61.1707C78.8297 60.9223 81.178 60.4807 82.1394 60.45C83.1054 60.4216 83.826 61.958 83.2717 62.4878C82.7167 63.0168 79.7343 65.5315 76.6224 65.6234C75.2861 65.6672 73.4715 64.4995 73.4101 62.4073C73.3794 61.2987 73.8203 59.8129 74.2458 58.6614C74.1423 58.5962 74.0618 58.4436 74.0035 58.1117C73.8655 57.358 73.5282 56.5323 74.7763 56.3897C74.8806 56.3782 75.0033 56.3667 75.152 56.3545L76.1854 54.2254C75.7661 54.1641 75.4035 54.0721 75.1236 53.9341C74.3646 53.5738 73.7705 52.6384 73.7589 52.2229C73.7329 51.3044 80.4596 50.7555 82.0182 50.7095C83.6896 50.662 84.1649 50.984 84.6977 51.7468C85.2344 52.5104 85.4353 53.0501 85.4414 53.2602C85.4445 53.4672 85.252 53.9847 83.2311 54.0453C82.1961 54.0759 80.5271 54.2523 78.9224 54.3105L78.2225 56.1697C79.7865 56.093 81.247 56.0332 81.247 56.0332L81.2378 56.034ZM42.8969 46.512C43.4412 45.7453 46.2495 41.981 49.1498 41.8966C50.0008 41.8713 50.2254 42.3965 50.2446 42.9776C50.2752 43.8838 48.6346 46.5304 44.9393 46.64C44.132 46.663 43.4519 46.604 42.9053 46.5143L42.8969 46.512ZM40.6061 45.2623C40.5371 45.1527 40.4757 44.9763 40.4681 44.7026C40.4451 44.097 41.4877 41.7793 44.1174 41.59C43.4504 42.05 42.7681 42.6357 42.1011 43.3916C41.4724 44.097 40.9741 44.7203 40.5999 45.2623H40.6061ZM2.25058 40.9375C1.04845 40.9682 0.142248 40.4415 0.119248 39.7055C0.106215 39.1688 1.28305 37.4883 2.00141 37.2169C2.49208 37.0275 4.88254 36.1206 8.8669 36.0002C10.3443 35.958 12.8536 36.1382 14.9695 36.4525C27.3006 38.2849 40.2388 47.6842 40.4888 56.021C40.659 61.6943 35.7561 67.015 26.1874 67.2986C23.6697 67.3753 21.3267 67.0663 19.1923 66.5051C19.1463 67.8928 19.2491 68.6288 17.2757 68.6901C16.0682 68.7239 15.5951 66.7673 15.4188 65.1742C9.64353 62.6135 6.16363 58.4505 6.11457 56.8099C6.04327 54.3604 10.4907 52.3203 15.6933 51.5122C15.7653 49.4882 16.1096 44.3285 17.1806 44.2978C17.6099 44.2848 18.4993 45.2815 18.8335 46.8071C19.1402 48.1925 19.1709 50.7171 19.1732 51.1695L19.5672 51.1542C26.869 50.9395 31.2412 53.2211 31.3233 55.9244C31.3846 58.0189 29.5293 59.0907 28.5556 59.1214C27.5896 59.1497 26.4473 58.597 26.4396 58.2964C26.4243 57.7176 28.5173 57.5834 28.4897 56.6512C28.4491 55.2443 22.6446 54.6272 19.0697 54.6042C19.062 55.817 19.0467 57.2798 19.0758 58.2642C19.1049 59.2072 19.1647 61.6475 19.1931 63.6846C20.8123 64.0265 22.4859 64.2136 24.1228 64.1645C27.9791 64.0495 36.7842 62.6434 36.5887 56.0271C36.3058 46.7903 18.0308 38.3002 8.2459 38.5915C4.38957 38.7042 2.07578 39.1182 2.08574 39.4962C2.09341 39.7492 3.96407 39.8458 3.97941 40.3449C3.99244 40.8448 2.91604 40.9138 2.25671 40.9329L2.25058 40.9375ZM49.5461 39.9409C49.366 39.4931 48.7641 38.5869 46.6136 38.6513C41.9293 38.7893 38.3222 42.2623 38.4027 44.9993C38.4287 45.8864 38.8581 46.6653 39.4883 47.304C39.3273 47.7486 39.3119 48.0476 39.3119 48.2193C39.3273 48.6947 40.0479 49.9482 40.5923 49.9313C41.0599 49.9206 41.3743 49.4867 41.8189 48.7813C42.5856 49.0765 43.3523 49.226 43.9503 49.2076C48.3586 49.0773 52.3529 44.9487 52.2762 42.3076C52.2456 41.0932 51.4559 39.9156 49.553 39.9462L49.5461 39.9409Z" fill="#72767D"/>
</g>
<defs>
<clipPath id="clip0_619_3342">
<rect width="98.1331" height="41.4" fill="white" transform="translate(0.120117 36)"/>
</clipPath>
</defs>
</svg>
