<svg width="122" height="115" viewBox="0 0 122 115" fill="none" xmlns="http://www.w3.org/2000/svg">
<g clip-path="url(#clip0_619_3305)">
<path d="M114.529 65.0985C114.529 63.3401 115.957 61.9136 117.714 61.9136C119.473 61.9136 120.898 63.3401 120.898 65.0985C120.898 66.8568 119.473 68.2825 117.714 68.2825C115.957 68.2825 114.529 66.8568 114.529 65.0985Z" fill="#72767D"/>
<path d="M12.959 56.6639C12.959 54.6466 12.5692 53.1499 11.7896 52.1748C11.0089 51.2008 9.82673 50.7142 8.23686 50.7142H6.54594V63.0503H7.83981C9.60547 63.0503 10.8993 62.5267 11.7233 61.4762C12.5462 60.4276 12.959 58.8231 12.959 56.6639ZM18.9897 56.4536C18.9897 60.1289 18.0019 62.9609 16.026 64.9486C14.0502 66.9373 11.2727 67.9317 7.69221 67.9317H0.735352V45.9092H8.17799C11.6301 45.9092 14.2953 46.8134 16.1734 48.6206C18.0507 50.4287 18.9897 53.0385 18.9897 56.4539M38.2604 67.9315H43.7962V45.8167H38.2604V67.9315ZM51.5731 59.6826C51.5731 61.0926 51.7573 62.168 52.1252 62.9071C52.4937 63.6472 53.1111 64.0167 53.9791 64.0167C54.8381 64.0167 55.4454 63.6472 55.7994 62.9071C56.1531 62.168 56.3292 61.0926 56.3292 59.6826C56.3292 58.2799 56.1504 57.2219 55.792 56.5079C55.4325 55.7916 54.8197 55.4332 53.9507 55.4332C53.1009 55.4332 52.4937 55.79 52.125 56.4995C51.7574 57.21 51.5731 58.2707 51.5731 59.6826ZM61.9636 59.6826C61.9636 62.3689 61.2595 64.4646 59.8477 65.9667C58.4369 67.4698 56.4619 68.2218 53.923 68.2218C51.4883 68.2218 49.5502 67.4532 48.1116 65.916C46.6712 64.3789 45.9514 62.3016 45.9514 59.6827C45.9514 57.0045 46.6566 54.9236 48.0683 53.4399C49.4801 51.9561 51.4597 51.2144 54.0086 51.2144C55.5837 51.2144 56.9771 51.5581 58.1843 52.2447C59.3924 52.9311 60.3252 53.9146 60.9804 55.1956C61.6365 56.4746 61.9636 57.9713 61.9636 59.6826ZM64.1621 67.9315H69.6988V51.5047H64.1621V67.9315ZM64.1619 49.5176H69.6987V45.8159H64.1619V49.5176ZM80.916 63.7417C81.6635 63.7417 82.5536 63.5518 83.5922 63.175V67.3082C82.8457 67.6362 82.1361 67.8712 81.4615 68.0103C80.787 68.1514 79.9954 68.2214 79.0895 68.2214C77.2306 68.2214 75.8907 67.7542 75.0677 66.8215C74.2484 65.889 73.8375 64.4569 73.8375 62.5244V55.7525H71.8985V51.5062H73.8375V47.3111L79.4166 46.3408V51.506H82.9491V55.7527H79.4166V62.1464C79.4166 63.21 79.9171 63.7417 80.916 63.7417ZM93.73 63.7417C94.4775 63.7417 95.3678 63.5518 96.4063 63.175V67.3082C95.6608 67.6362 94.9502 67.8712 94.2756 68.0103C93.6001 68.1514 92.8114 68.2214 91.9036 68.2214C90.0448 68.2214 88.7049 67.7542 87.8836 66.8215C87.0626 65.889 86.6516 64.4569 86.6516 62.5244V55.7525H84.7118V51.5062H86.6516V47.2476L92.2297 46.3408V51.506H95.764V55.7527H92.2298V62.1464C92.2298 63.21 92.7301 63.7417 93.73 63.7417ZM103.392 57.6814C103.468 56.782 103.725 56.123 104.164 55.7019C104.604 55.2817 105.148 55.0716 105.799 55.0716C106.508 55.0716 107.072 55.3075 107.491 55.7829C107.912 56.2557 108.131 56.8889 108.149 57.6814H103.392ZM111.2 53.151C109.884 51.8609 108.017 51.2148 105.601 51.2148C103.062 51.2148 101.109 51.9567 99.7392 53.4403C98.3707 54.9241 97.6861 57.0528 97.6861 59.8269C97.6861 62.5131 98.4261 64.5848 99.9024 66.039C101.38 67.4932 103.454 68.2213 106.126 68.2213C107.409 68.2213 108.513 68.1338 109.438 67.9596C110.357 67.7873 111.248 67.4757 112.111 67.026L111.261 63.3241C110.633 63.5804 110.036 63.7775 109.472 63.9074C108.657 64.0965 107.763 64.1913 106.79 64.1913C105.723 64.1913 104.881 63.9306 104.263 63.409C103.646 62.8864 103.317 62.1657 103.279 61.2479H113.175V58.7255C113.175 56.2991 112.517 54.4402 111.2 53.151ZM26.3373 57.6814C26.4128 56.782 26.67 56.123 27.1086 55.7019C27.5481 55.2817 28.0928 55.0716 28.7444 55.0716C29.4522 55.0716 30.0162 55.3075 30.4355 55.7829C30.8566 56.2557 31.075 56.8889 31.0944 57.6814H26.3373ZM34.1456 53.151C32.8287 51.8609 30.9625 51.2148 28.5463 51.2148C26.0064 51.2148 24.0537 51.9567 22.6851 53.4403C21.3166 54.9241 20.631 57.0528 20.631 59.8269C20.631 62.5131 21.37 64.5848 22.8483 66.039C24.3246 67.4932 26.399 68.2213 29.0707 68.2213C30.3534 68.2213 31.4575 68.1338 32.3827 67.9596C33.3024 67.7873 34.1927 67.4757 35.0571 67.026L34.2056 63.3241C33.5779 63.5804 32.9808 63.7775 32.4177 63.9074C31.6013 64.0965 30.7083 64.1913 29.735 64.1913C28.6688 64.1913 27.8257 63.9306 27.2082 63.409C26.5897 62.8864 26.2617 62.1657 26.224 61.2479H36.1197V58.7255C36.1197 56.2991 35.4617 54.4402 34.1456 53.151Z" fill="#72767D"/>
</g>
<defs>
<clipPath id="clip0_619_3305">
<rect width="120.166" height="26.1" fill="white" transform="translate(0.733398 44)"/>
</clipPath>
</defs>
</svg>
