<svg width="136" height="115" viewBox="0 0 136 115" fill="none" xmlns="http://www.w3.org/2000/svg">
<g clip-path="url(#clip0_619_3343)">
<path d="M47.6609 59.5878L46.8572 61.865H46.7902C46.6563 61.3515 46.4107 60.5701 46.0088 59.6324L41.7 48.8045H37.4805V66.0622H40.2712V55.4129C40.2712 54.7431 40.2712 53.984 40.2488 53.0464C40.2265 52.5775 40.1819 52.2203 40.1595 51.9524H40.2265C40.3605 52.6222 40.5167 53.1134 40.6284 53.4259L45.8079 66.0175H47.7726L52.9074 53.3143C53.0191 53.024 53.1307 52.4436 53.2423 51.9524H53.3093C53.2423 53.225 53.1977 54.3636 53.1753 55.0557V65.9952H56.1447V48.7599H52.0814L47.6609 59.5878ZM58.9577 53.6268H61.86V65.9952H58.9577V53.6268ZM60.4312 48.4027C59.94 48.4027 59.5381 48.5813 59.2033 48.8938C58.8684 49.2064 58.6898 49.6082 58.6898 50.0994C58.6898 50.5682 58.8684 50.9701 59.2033 51.2827C59.5381 51.5952 59.94 51.7515 60.4312 51.7515C60.9223 51.7515 61.3465 51.5729 61.6591 51.2827C61.994 50.9701 62.1726 50.5682 62.1726 50.0994C62.1726 49.6306 61.994 49.2287 61.6591 48.8938C61.3688 48.5813 60.9447 48.4027 60.4312 48.4027ZM72.1521 53.5152C71.6163 53.4036 71.0581 53.3366 70.5223 53.3366C69.2051 53.3366 67.9995 53.6268 66.9949 54.2073C65.9902 54.7878 65.1865 55.5915 64.673 56.5961C64.1372 57.6231 63.8693 58.8064 63.8693 60.1682C63.8693 61.3515 64.1372 62.4008 64.6507 63.3608C65.1642 64.2985 65.8786 65.0575 66.8386 65.571C67.754 66.0845 68.8256 66.3524 70.0312 66.3524C71.4153 66.3524 72.5986 66.0622 73.5363 65.5264L73.5586 65.504V62.825L73.447 62.9143C73.0228 63.2268 72.5316 63.4947 72.0405 63.651C71.527 63.8296 71.0581 63.9189 70.6563 63.9189C69.4954 63.9189 68.58 63.584 67.9326 62.8473C67.2628 62.1329 66.9279 61.1506 66.9279 59.9227C66.9279 58.6501 67.2628 57.6454 67.9549 56.9087C68.647 56.172 69.5623 55.7924 70.6786 55.7924C71.6163 55.7924 72.5763 56.105 73.447 56.7301L73.5586 56.8194V53.984L73.5363 53.9617C73.1567 53.8054 72.7326 53.6268 72.1521 53.5152ZM81.7298 53.4259C81.0153 53.4259 80.3456 53.6492 79.7651 54.118C79.274 54.5199 78.9391 55.1003 78.6488 55.7924H78.6265V53.6268H75.7242V65.9952H78.6265V59.6771C78.6265 58.6054 78.8498 57.7124 79.3409 57.065C79.8321 56.3952 80.4572 56.0603 81.2163 56.0603C81.4842 56.0603 81.7521 56.1273 82.087 56.172C82.3995 56.2613 82.6228 56.3506 82.7791 56.4622L82.8907 56.5515V53.6492L82.8237 53.6268C82.6228 53.4929 82.2209 53.4259 81.7298 53.4259ZM89.633 53.3589C87.6014 53.3589 85.9716 53.9617 84.833 55.145C83.6721 56.3282 83.114 57.958 83.114 60.012C83.114 61.932 83.6944 63.4947 84.8107 64.6334C85.927 65.7496 87.4451 66.3301 89.3428 66.3301C91.3298 66.3301 92.9149 65.7273 94.0535 64.5217C95.2144 63.3161 95.7726 61.7087 95.7726 59.7217C95.7726 57.7571 95.2367 56.1943 94.1428 55.0557C93.0935 53.9171 91.553 53.3589 89.633 53.3589ZM91.9549 62.8696C91.4191 63.5617 90.5707 63.8966 89.5214 63.8966C88.4721 63.8966 87.6237 63.5617 87.0209 62.825C86.4181 62.1329 86.1279 61.1282 86.1279 59.8557C86.1279 58.5385 86.4405 57.5338 87.0209 56.8194C87.6237 56.105 88.4498 55.7478 89.4991 55.7478C90.5261 55.7478 91.3298 56.0827 91.9102 56.7747C92.4907 57.4668 92.8033 58.4715 92.8033 59.7887C92.7586 61.1282 92.513 62.1775 91.9549 62.8696ZM102.247 58.7617C101.332 58.3822 100.751 58.092 100.483 57.8464C100.26 57.6231 100.148 57.3106 100.148 56.9087C100.148 56.5738 100.282 56.2389 100.617 56.0157C100.952 55.7924 101.332 55.6808 101.89 55.6808C102.381 55.6808 102.894 55.7701 103.386 55.904C103.877 56.038 104.323 56.2389 104.68 56.5068L104.792 56.5961V53.8724L104.725 53.8501C104.39 53.7161 103.944 53.5822 103.408 53.4706C102.872 53.3813 102.381 53.3366 101.979 53.3366C100.595 53.3366 99.4563 53.6715 98.5633 54.4082C97.6702 55.1003 97.246 56.038 97.246 57.132C97.246 57.7124 97.3354 58.2259 97.5363 58.6501C97.7372 59.0743 98.0274 59.4761 98.4293 59.811C98.8312 60.1236 99.4116 60.4808 100.215 60.8157C100.885 61.1059 101.399 61.3292 101.711 61.5078C102.024 61.6864 102.225 61.8873 102.381 62.0436C102.493 62.2222 102.56 62.4454 102.56 62.7357C102.56 63.5617 101.934 63.9636 100.662 63.9636C100.171 63.9636 99.6572 63.8743 99.0544 63.6734C98.4516 63.4724 97.8935 63.1822 97.4247 62.8473L97.313 62.758V65.5934L97.38 65.6157C97.8042 65.8166 98.3177 65.9506 98.9428 66.1068C99.5679 66.2185 100.126 66.3078 100.617 66.3078C102.113 66.3078 103.341 65.9729 104.212 65.2361C105.105 64.5217 105.573 63.6064 105.573 62.4231C105.573 61.5971 105.35 60.8603 104.859 60.3022C104.212 59.7664 103.408 59.2082 102.247 58.7617ZM113.231 53.3589C111.2 53.3589 109.57 53.9617 108.431 55.145C107.293 56.3282 106.712 57.958 106.712 60.012C106.712 61.932 107.293 63.4947 108.409 64.6334C109.525 65.7496 111.043 66.3301 112.941 66.3301C114.928 66.3301 116.513 65.7273 117.652 64.5217C118.813 63.3161 119.371 61.7087 119.371 59.7217C119.371 57.7571 118.835 56.1943 117.741 55.0557C116.692 53.9171 115.151 53.3589 113.231 53.3589ZM115.531 62.8696C114.995 63.5617 114.147 63.8966 113.097 63.8966C112.026 63.8966 111.2 63.5617 110.597 62.825C109.994 62.1329 109.704 61.1282 109.704 59.8557C109.704 58.5385 110.016 57.5338 110.597 56.8194C111.2 56.105 112.026 55.7478 113.075 55.7478C114.08 55.7478 114.906 56.0827 115.486 56.7747C116.067 57.4668 116.379 58.4715 116.379 59.7887C116.379 61.1282 116.089 62.1775 115.531 62.8696ZM134.887 56.0157V53.6268H131.962V49.9654L131.873 49.9878L129.105 50.8138L129.038 50.8361V53.6268H124.662V52.064C124.662 51.3496 124.84 50.7915 125.153 50.4343C125.466 50.0771 125.934 49.8985 126.515 49.8985C126.917 49.8985 127.341 49.9878 127.81 50.1887L127.921 50.2557V47.7329L127.854 47.7106C127.453 47.5766 126.917 47.4873 126.225 47.4873C125.354 47.4873 124.595 47.6882 123.903 48.0231C123.211 48.4027 122.697 48.9161 122.318 49.6082C121.938 50.278 121.737 51.0371 121.737 51.9078V53.6268H119.706V55.9934H121.737V65.9952H124.662V56.0157H129.038V62.3785C129.038 64.9906 130.266 66.3078 132.721 66.3078C133.123 66.3078 133.547 66.2408 133.949 66.1738C134.373 66.0845 134.686 65.9729 134.865 65.8836L134.887 65.8613V63.4724L134.775 63.5617C134.597 63.6734 134.44 63.7627 134.173 63.8296C133.949 63.8966 133.748 63.9189 133.592 63.9189C133.012 63.9189 132.61 63.785 132.32 63.4501C132.052 63.1375 131.918 62.624 131.918 61.865V56.0157H134.887Z" fill="#72767D"/>
<path d="M0.0615234 43H13.7471V56.6856H0.0615234V43Z" fill="#72767D"/>
<path d="M15.1768 43H28.8623V56.6856H15.1768V43Z" fill="#72767D"/>
<path d="M0.0615234 58.1143H13.7471V71.7998H0.0615234V58.1143Z" fill="#72767D"/>
<path d="M15.1768 58.1143H28.8623V71.7998H15.1768V58.1143Z" fill="#72767D"/>
</g>
<defs>
<clipPath id="clip0_619_3343">
<rect width="134.831" height="28.8" fill="white" transform="translate(0.0595703 43)"/>
</clipPath>
</defs>
</svg>
